<svg width="475" height="475" viewBox="0 0 475 475" fill="none" xmlns="http://www.w3.org/2000/svg">
<path d="M472.937 20.7884C473.504 17.7218 471.13 15 468.012 15H89.6471C87.2422 15 85.1779 16.7121 84.7333 19.0756L2.58174 455.776C1.71391 460.389 7.11967 463.707 10.8119 460.809C44.0088 434.746 147.29 358.32 231 346.5C272.376 340.658 299.432 362.582 338 346.5C385.399 326.735 402 286.5 421 244.5C438.01 206.899 467.042 52.6817 472.937 20.7884Z" fill="#6BC045"/>
<path d="M259 223.5L233.5 170L272.5 159.5L305 173.5L317.5 198.5L388.5 307.5C388.5 307.5 385.047 315.362 365.5 331C343 349 339 346 339 346L259 223.5Z" fill="#303030"/>
<path d="M163 91.5H230.5L197.5 269L117 310.5L163 91.5Z" fill="#303030"/>
<path d="M262.5 160.5H215.5L203 222H267L262.5 160.5Z" fill="#303030"/>
<path d="M303 92H381.5L312.5 192L272.5 199.5L259 159.5L303 92Z" fill="#303030"/>
</svg>
